<svg width="154" height="56" viewBox="0 0 154 56" fill="none" xmlns="http://www.w3.org/2000/svg">
<path d="M52.166 41.308C50.0613 41.308 48.162 40.8588 46.468 39.9605C44.7997 39.0622 43.4778 37.7788 42.5025 36.1105C41.5528 34.4422 41.078 32.4915 41.078 30.2585C41.078 28.0512 41.5657 26.1133 42.541 24.445C43.5163 22.751 44.851 21.4548 46.545 20.5565C48.239 19.6582 50.1383 19.209 52.243 19.209C54.3477 19.209 56.247 19.6582 57.941 20.5565C59.635 21.4548 60.9697 22.751 61.945 24.445C62.9203 26.1133 63.408 28.0512 63.408 30.2585C63.408 32.4658 62.9075 34.4165 61.9065 36.1105C60.9312 37.7788 59.5837 39.0622 57.864 39.9605C56.17 40.8588 54.2707 41.308 52.166 41.308ZM52.166 35.61C53.4237 35.61 54.4888 35.148 55.3615 34.224C56.2598 33.3 56.709 31.9782 56.709 30.2585C56.709 28.5388 56.2727 27.217 55.4 26.293C54.553 25.369 53.5007 24.907 52.243 24.907C50.9597 24.907 49.8945 25.369 49.0475 26.293C48.2005 27.1913 47.777 28.5132 47.777 30.2585C47.777 31.9782 48.1877 33.3 49.009 34.224C49.856 35.148 50.9083 35.61 52.166 35.61ZM80.0292 41L73.4842 31.991V41H66.9007V12.51H73.4842V28.2565L79.9907 19.517H88.1142L79.1822 30.297L88.1912 41H80.0292ZM100.479 41.308C98.3743 41.308 96.475 40.8588 94.781 39.9605C93.1127 39.0622 91.7908 37.7788 90.8155 36.1105C89.8658 34.4422 89.391 32.4915 89.391 30.2585C89.391 28.0512 89.8787 26.1133 90.854 24.445C91.8293 22.751 93.164 21.4548 94.858 20.5565C96.552 19.6582 98.4513 19.209 100.556 19.209C102.661 19.209 104.56 19.6582 106.254 20.5565C107.948 21.4548 109.283 22.751 110.258 24.445C111.233 26.1133 111.721 28.0512 111.721 30.2585C111.721 32.4658 111.22 34.4165 110.219 36.1105C109.244 37.7788 107.897 39.0622 106.177 39.9605C104.483 40.8588 102.584 41.308 100.479 41.308ZM100.479 35.61C101.737 35.61 102.802 35.148 103.674 34.224C104.573 33.3 105.022 31.9782 105.022 30.2585C105.022 28.5388 104.586 27.217 103.713 26.293C102.866 25.369 101.814 24.907 100.556 24.907C99.2727 24.907 98.2075 25.369 97.3605 26.293C96.5135 27.1913 96.09 28.5132 96.09 30.2585C96.09 31.9782 96.5007 33.3 97.322 34.224C98.169 35.148 99.2213 35.61 100.479 35.61ZM121.797 23.0975C122.567 21.9168 123.53 20.9928 124.685 20.3255C125.84 19.6325 127.123 19.286 128.535 19.286V26.2545H126.725C125.082 26.2545 123.85 26.6138 123.029 27.3325C122.208 28.0255 121.797 29.2575 121.797 31.0285V41H115.214V19.517H121.797V23.0975ZM153.626 19.517L140.151 51.2025H133.067L137.995 40.2685L129.256 19.517H136.609L141.576 32.9535L146.504 19.517H153.626Z" fill="black"/>
<path d="M15.8323 10.9171L10.909 38.9785L4.42457 37.8408L9.34783 9.77942L15.8323 10.9171ZM25.1869 41.7962C23.1139 41.4325 21.3208 40.6619 19.8075 39.4843C18.3195 38.3112 17.2393 36.8187 16.5669 35.007C15.9199 33.1996 15.7893 31.1962 16.1751 28.9968C16.5566 26.8227 17.3718 24.9983 18.6207 23.5236C19.8741 22.0236 21.4127 20.9776 23.2365 20.3855C25.0602 19.7934 27.0086 19.6793 29.0816 20.043C31.1546 20.4067 32.9477 21.1773 34.461 22.3548C35.9743 23.5324 37.0649 25.0397 37.7328 26.8768C38.4052 28.6885 38.5506 30.6815 38.1692 32.8556C37.7878 35.0297 36.9577 36.8646 35.679 38.3601C34.4301 39.8348 32.8811 40.866 31.032 41.4536C29.2083 42.0457 27.2599 42.1599 25.1869 41.7962ZM26.1716 36.1839C27.4103 36.4012 28.5393 36.1303 29.5585 35.371C30.603 34.6161 31.2738 33.3918 31.571 31.698C31.8682 30.0042 31.6668 28.6268 30.9669 27.5659C30.2924 26.5095 29.3357 25.8726 28.0969 25.6552C26.8329 25.4335 25.7039 25.7044 24.71 26.4682C23.7205 27.2066 23.075 28.4354 22.7734 30.1545C22.4762 31.8483 22.6523 33.2212 23.3016 34.2732C23.9761 35.3297 24.9328 35.9666 26.1716 36.1839Z" fill="black"/>
</svg>
