<svg width="150" height="54" viewBox="0 0 150 54" fill="none" xmlns="http://www.w3.org/2000/svg">
<path d="M12.8174 10.4017L9.42008 38.6884L4.06854 38.0456L7.4659 9.75892L12.8174 10.4017ZM24.0695 40.7968C22.0308 40.552 20.2496 39.8856 18.7258 38.7978C17.205 37.6845 16.0726 36.2431 15.3287 34.4734C14.6102 32.7068 14.3811 30.7404 14.6412 28.5743C14.9014 26.4082 15.6024 24.5536 16.7442 23.0104C17.9116 21.4703 19.377 20.3537 21.1405 19.6607C22.9072 18.9423 24.8098 18.7055 26.8485 18.9503C28.8872 19.1952 30.6796 19.8758 32.2259 20.9921C33.7752 22.083 34.9218 23.5133 35.6658 25.283C36.4352 27.0557 36.6898 29.0251 36.4297 31.1912C36.1695 33.3573 35.443 35.2089 34.2502 36.746C33.0829 38.2861 31.6032 39.4138 29.8111 40.1292C28.0475 40.8222 26.1337 41.0447 24.0695 40.7968ZM24.6296 36.1333C25.598 36.2497 26.5302 36.129 27.4263 35.7713C28.3508 35.3911 29.1246 34.7602 29.7475 33.8786C30.3704 32.9969 30.763 31.8807 30.9252 30.5301C31.167 28.5169 30.817 26.9109 29.8753 25.712C28.9621 24.4907 27.7409 23.7883 26.2119 23.6046C24.6829 23.421 23.3302 23.8143 22.1538 24.7846C21.0059 25.7325 20.311 27.213 20.0692 29.2262C19.8274 31.2394 20.1377 32.8536 20.9999 34.0688C21.8907 35.2615 23.1006 35.9497 24.6296 36.1333Z" fill="black"/>
<path d="M51.1275 38.3465C49.0742 38.3465 47.2262 37.8973 45.5835 36.999C43.9408 36.075 42.6447 34.7788 41.695 33.1105C40.771 31.4422 40.309 29.5172 40.309 27.3355C40.309 25.1538 40.7838 23.2288 41.7335 21.5605C42.7088 19.8922 44.0307 18.6088 45.699 17.7105C47.3673 16.7865 49.2282 16.3245 51.2815 16.3245C53.3348 16.3245 55.1957 16.7865 56.864 17.7105C58.5323 18.6088 59.8413 19.8922 60.791 21.5605C61.7663 23.2288 62.254 25.1538 62.254 27.3355C62.254 29.5172 61.7535 31.4422 60.7525 33.1105C59.7772 34.7788 58.4425 36.075 56.7485 36.999C55.0802 37.8973 53.2065 38.3465 51.1275 38.3465ZM51.1275 33.6495C52.1028 33.6495 53.014 33.4185 53.861 32.9565C54.7337 32.4688 55.4267 31.7502 55.94 30.8005C56.4533 29.8508 56.71 28.6958 56.71 27.3355C56.71 25.3078 56.171 23.755 55.093 22.677C54.0407 21.5733 52.7445 21.0215 51.2045 21.0215C49.6645 21.0215 48.3683 21.5733 47.316 22.677C46.2893 23.755 45.776 25.3078 45.776 27.3355C45.776 29.3632 46.2765 30.9288 47.2775 32.0325C48.3042 33.1105 49.5875 33.6495 51.1275 33.6495ZM78.8358 38L71.5978 28.914V38H66.2078V9.51H71.5978V25.7185L78.7588 16.671H85.7658L76.3718 27.374L85.8428 38H78.8358ZM98.1622 38.3465C96.1088 38.3465 94.2608 37.8973 92.6182 36.999C90.9755 36.075 89.6793 34.7788 88.7297 33.1105C87.8057 31.4422 87.3437 29.5172 87.3437 27.3355C87.3437 25.1538 87.8185 23.2288 88.7682 21.5605C89.7435 19.8922 91.0653 18.6088 92.7337 17.7105C94.402 16.7865 96.2628 16.3245 98.3162 16.3245C100.37 16.3245 102.23 16.7865 103.899 17.7105C105.567 18.6088 106.876 19.8922 107.826 21.5605C108.801 23.2288 109.289 25.1538 109.289 27.3355C109.289 29.5172 108.788 31.4422 107.787 33.1105C106.812 34.7788 105.477 36.075 103.783 36.999C102.115 37.8973 100.241 38.3465 98.1622 38.3465ZM98.1622 33.6495C99.1375 33.6495 100.049 33.4185 100.896 32.9565C101.768 32.4688 102.461 31.7502 102.975 30.8005C103.488 29.8508 103.745 28.6958 103.745 27.3355C103.745 25.3078 103.206 23.755 102.128 22.677C101.075 21.5733 99.7792 21.0215 98.2392 21.0215C96.6992 21.0215 95.403 21.5733 94.3507 22.677C93.324 23.755 92.8107 25.3078 92.8107 27.3355C92.8107 29.3632 93.3112 30.9288 94.3122 32.0325C95.3388 33.1105 96.6222 33.6495 98.1622 33.6495ZM118.632 19.982C119.325 18.8527 120.224 17.9672 121.327 17.3255C122.457 16.6838 123.74 16.363 125.177 16.363V22.0225H123.753C122.059 22.0225 120.776 22.4203 119.903 23.216C119.056 24.0117 118.632 25.3977 118.632 27.374V38H113.242V16.671H118.632V19.982ZM149.213 16.671L136.007 48.087H130.271L134.891 37.461L126.344 16.671H132.388L137.894 31.5705L143.476 16.671H149.213Z" fill="black"/>
</svg>
