<svg width="50" height="50" viewBox="0 0 50 50" fill="none" xmlns="http://www.w3.org/2000/svg">
<g clip-path="url(#clip0_2001_4)">
<path d="M40 0H10C4.47715 0 0 4.47715 0 10V40C0 45.5228 4.47715 50 10 50H40C45.5228 50 50 45.5228 50 40V10C50 4.47715 45.5228 0 40 0Z" fill="black"/>
<path d="M21.0339 11.0788L16.8779 34.767L11.404 33.8066L15.56 10.1184L21.0339 11.0788ZM28.9307 37.1456C27.1807 36.8385 25.667 36.188 24.3896 35.194C23.1335 34.2037 22.2217 32.9438 21.6541 31.4144C21.1078 29.8887 20.9976 28.1976 21.3233 26.3409C21.6453 24.5056 22.3335 22.9655 23.3878 21.7207C24.4459 20.4545 25.7447 19.5714 27.2842 19.0716C28.8237 18.5718 30.4685 18.4754 32.2184 18.7824C33.9683 19.0895 35.482 19.74 36.7595 20.734C38.0369 21.7281 38.9575 23.0005 39.5214 24.5512C40.089 26.0807 40.2117 27.763 39.8898 29.5983C39.5678 31.4336 38.8671 32.9825 37.7877 34.245C36.7333 35.4898 35.4257 36.3603 33.8649 36.8564C32.3253 37.3562 30.6806 37.4526 28.9307 37.1456ZM29.7619 32.4079C30.8076 32.5914 31.7606 32.3626 32.621 31.7217C33.5027 31.0845 34.069 30.0509 34.3198 28.6211C34.5707 27.1913 34.4007 26.0286 33.8099 25.133C33.2405 24.2412 32.4329 23.7035 31.3872 23.5201C30.3202 23.3329 29.3671 23.5616 28.5281 24.2063C27.6928 24.8297 27.1479 25.867 26.8933 27.3181C26.6424 28.748 26.791 29.9069 27.3391 30.795C27.9086 31.6868 28.7162 32.2245 29.7619 32.4079Z" fill="white"/>
</g>
<defs>
<clipPath id="clip0_2001_4">
<rect width="50" height="50" fill="white"/>
</clipPath>
</defs>
</svg>
